<?xml version="1.0" encoding="UTF-8" standalone="no"?>
<svg
   width="914.15405"
   height="284.95618"
   viewBox="0 0 241.86993 75.394654"
   version="1.1"
   id="svg1"
   xmlns="http://www.w3.org/2000/svg"
   xmlns:svg="http://www.w3.org/2000/svg">
  <g
     id="layer1"
     transform="translate(-14.531705,-97.769342)">
    <path
       id="path1"
       style="fill:#FFFFFF;fill-opacity:1;"
       d="m 47.92808,97.769342 c -0.447278,1.888063 -0.919411,3.725368 -1.416386,5.511368 -0.447276,1.73497 -0.91941,3.46925 -1.416386,5.2042 h -9.317827 l -0.59628,5.97103 h 8.125269 c -1.391529,4.23535 -2.956808,8.29204 -4.696218,12.1702 -1.689715,3.82714 -3.65298,7.60265 -5.889366,11.32772 l 5.590932,3.13854 c 0.496974,-0.81646 0.969106,-1.65783 1.416384,-2.52532 h 7.603597 l -2.608944,24.49346 c -0.19879,2.09216 -0.894534,3.13854 -2.087275,3.13854 -0.646065,0 -1.143109,-0.3327 -1.490993,-0.99608 -0.34788,-0.66336 -0.571494,-1.42855 -0.670888,-2.29603 l -5.143869,0.91928 c 0.347884,2.65348 1.168182,4.77036 2.460316,6.35224 1.292135,1.58188 3.081024,2.37282 5.367107,2.37282 1.888503,0 3.603248,-0.6627 5.143869,-1.98942 1.590319,-1.27573 2.559496,-3.59758 2.907379,-6.96546 l 2.534336,-25.02935 h 12.598246 l 0.596285,-6.12351 H 54.488333 l 1.192561,-11.78842 H 49.56829 l -1.19256,11.86468 h -5.590932 c 2.683664,-5.61314 5.06924,-11.6343 7.156533,-18.06389 h 20.648912 l 0.522255,-5.97103 H 51.730172 c 0.844856,-3.01066 1.665156,-6.14814 2.460316,-9.413967 z m 42.977974,0.535896 -0.373038,3.903702 H 78.978695 l -0.59628,5.89366 h 11.554322 l -0.447068,4.05675 h 6.485644 l 0.447067,-4.05675 h 12.67285 l -0.44707,4.05675 h 6.48566 l 0.44705,-4.05675 h 11.70353 l 0.59688,-5.89366 h -11.70413 l 0.37305,-3.903702 h -6.48564 l -0.37306,3.903702 H 97.018652 l 0.373046,-3.903702 z m -60.645484,2.372822 -6.112603,1.37784 c 0.596368,3.62301 1.093413,7.52676 1.490993,11.71112 0.447276,4.1333 0.770532,8.54735 0.969323,13.24198 l 6.336428,-1.30213 c -0.198791,-4.6436 -0.522046,-9.08233 -0.969322,-13.31771 -0.447277,-4.23536 -1.019054,-8.13911 -1.714819,-11.7111 z m 56.917999,11.32825 c -1.242428,3.0617 -2.857531,5.89389 -4.845435,8.49632 -1.9382,2.60246 -4.29887,5.10248 -7.081918,7.50081 l 4.92004,3.75123 c 2.981846,-2.65349 5.615944,-5.58762 7.902037,-8.8024 h 7.007313 c -0.69577,1.47982 -1.491159,2.88303 -2.385711,4.20976 -1.689714,-0.45924 -3.453693,-0.89337 -5.292502,-1.30158 l -2.385702,4.43903 c 1.540618,0.40824 3.031759,0.81712 4.472978,1.22535 -1.441219,1.6329 -3.056321,3.18959 -4.845434,4.66942 -1.789104,1.47982 -3.802196,2.90825 -6.038584,4.28604 l 3.951317,4.43903 c 5.267922,-3.46993 9.566372,-7.32271 12.896086,-11.55807 1.490923,0.45925 2.932223,0.94488 4.323756,1.45516 -1.391533,1.83701 -3.006626,3.5976 -4.845426,5.28154 -1.789104,1.68394 -3.851428,3.29053 -6.187208,4.82137 l 4.472978,3.67443 c 2.584257,-1.786 4.870206,-3.62279 6.858096,-5.51084 2.0376,-1.93908 3.82649,-3.98031 5.3671,-6.1235 1.83881,0.76544 3.65319,1.55639 5.4423,2.37283 l 2.08727,-4.89868 c -1.5406,-0.7144 -3.10648,-1.40339 -4.69681,-2.06677 1.54063,-2.85759 2.80816,-5.99562 3.80211,-9.41452 h 4.62161 l -1.49099,14.46625 c -0.2485,2.34731 -0.62097,3.92866 -1.11795,4.74511 -0.49697,0.81646 -1.1429,1.22481 -1.93807,1.22481 -0.74547,0 -1.36705,-0.28064 -1.86403,-0.84194 -0.49698,-0.61235 -0.9442,-1.63295 -1.34177,-3.06176 l -5.21789,1.60766 c 0.59635,2.95966 1.63968,5.17956 3.1306,6.6594 1.49093,1.42878 3.35455,2.14299 5.59094,2.14299 2.28609,0 4.29917,-0.7904 6.03858,-2.37228 1.73942,-1.58187 2.80764,-4.31211 3.20523,-8.19027 l 1.78942,-16.83961 c 0.19878,-1.88805 -0.14937,-3.34226 -1.04392,-4.36281 -0.89456,-1.02058 -2.28605,-1.53089 -4.17456,-1.53089 H 91.875372 c 0.447285,-0.86748 0.844684,-1.76038 1.19257,-2.67889 z m 165.248841,3.07906 c -1.54061,0 -2.73342,0.42644 -3.57827,1.27943 -0.84484,0.8103 -1.39172,1.83415 -1.64021,3.07095 -0.1988,1.27943 0.0496,2.32443 0.74549,3.13474 0.69578,0.81032 1.73968,1.21508 3.13122,1.21508 1.54061,0 2.7334,-0.40476 3.57826,-1.21508 0.89455,-0.81031 1.44083,-1.85531 1.63963,-3.13474 0.24849,-1.2368 0.0249,-2.26065 -0.6709,-3.07095 -0.69576,-0.85299 -1.764,-1.27943 -3.20522,-1.27943 z m -121.67753,1.58062 -0.89471,6.07755 h 16.19413 l -7.45437,45.61207 h 7.45437 l 7.45498,-45.61207 h 87.64902 l 0.96875,-6.07755 z m -29.33285,6.28628 h 4.62159 c -0.94425,2.65347 -2.03737,5.10199 -3.27982,7.34721 -1.3915,-0.51027 -2.807925,-0.99482 -4.249153,-1.45408 1.093343,-1.83701 2.062533,-3.80097 2.907383,-5.89313 z m 76.09119,5.74064 c -3.47881,0 -6.38637,0.85293 -8.72214,2.55885 -2.33577,1.66325 -4.1745,3.98766 -5.51633,6.97302 -1.29213,2.98535 -2.2364,6.43995 -2.83277,10.36355 -0.54667,3.92362 -0.67062,7.42053 -0.37244,10.49118 0.34789,3.07065 1.4161,5.50195 3.20521,7.29315 1.78911,1.74855 4.57209,2.62266 8.34911,2.62266 3.57816,0 6.68445,-0.98098 9.3184,-2.94279 2.63396,-1.9618 4.54742,-4.71266 5.74016,-8.25245 l -6.63487,-0.83168 c -1.59032,4.1795 -4.1746,6.26951 -7.75282,6.26951 -1.93819,0 -3.30477,-0.59683 -4.09993,-1.79098 -0.79517,-1.23678 -1.21747,-2.81515 -1.26717,-4.73429 -0.0496,-1.96182 0.0749,-4.05183 0.37304,-6.26952 h 20.87273 c 0.74546,-4.5633 0.94416,-8.46553 0.59629,-11.70679 -0.29819,-3.24122 -1.34152,-5.71485 -3.13062,-7.42076 -1.7891,-1.74854 -4.49796,-2.62266 -8.12585,-2.62266 z m 16.54897,0.63916 3.2058,39.02354 h 8.64753 l 8.79617,-22.45428 c 0.19879,-0.46912 0.39749,-1.02364 0.59627,-1.66337 0.19879,-0.68237 0.39808,-1.38607 0.59686,-2.1111 v 2.81463 c 0.0496,0.85295 0.0989,1.62069 0.14864,2.30306 l 1.6402,21.11106 h 8.64753 l 15.9527,-39.02354 h -7.45438 l -8.34909,23.15835 c -0.49698,1.45004 -1.01893,2.89979 -1.56561,4.34982 -0.49697,1.45002 -1.01895,2.90035 -1.5656,4.35036 -0.0496,-1.45001 -0.12443,-2.90034 -0.22383,-4.35036 -0.0496,-1.45003 -0.12384,-2.89978 -0.22323,-4.34982 l -1.26776,-23.15835 h -7.23055 l -8.3497,23.15835 c -0.54664,1.49268 -1.09294,2.96414 -1.6396,4.41417 l -1.491,4.34982 -0.29844,-4.34982 c -0.0496,-1.49267 -0.0989,-2.96413 -0.14862,-4.41417 l -1.04393,-23.15835 z m 52.63007,0 -6.41104,39.02354 h 7.23114 l 6.41104,-39.02354 z M 26.459065,133.1325 c -1.391529,5.71519 -3.056451,11.17454 -4.994653,16.37943 -1.888503,5.20493 -4.199349,10.35948 -6.932707,15.46233 l 5.292498,3.52086 c 2.832756,-5.10285 5.293065,-10.48654 7.380359,-16.15071 2.087293,-5.66417 3.851272,-11.53239 5.292498,-17.60479 z m 150.452865,1.31782 c 1.49093,0 2.58408,0.46879 3.27983,1.40704 0.74547,0.93824 1.19269,2.2182 1.34179,3.83882 0.14912,1.62062 0.12413,3.45398 -0.0746,5.50108 h -13.19456 c 0.84485,-3.49713 1.96289,-6.16228 3.35444,-7.99612 1.39151,-1.83387 3.15609,-2.75082 5.29308,-2.75082 z m -140.240323,9.55081 c -1.242436,3.57199 -2.683159,7.06737 -4.323176,10.48629 -1.590319,3.3679 -3.553586,6.58265 -5.889366,9.64435 l 5.06926,3.67445 c 2.484875,-3.46995 4.547195,-6.99113 6.187213,-10.56311 1.689713,-3.62303 3.155934,-7.29712 4.398372,-11.02219 z m 24.898652,0.91819 -5.963387,1.68445 c 0.496974,3.41891 1.093074,6.99104 1.788841,10.71612 0.695763,3.67405 1.516063,7.50107 2.460315,11.4813 l 6.112599,-1.68445 c -0.795159,-4.08228 -1.590547,-7.95974 -2.385708,-11.6338 -0.79516,-3.72507 -1.465985,-7.24676 -2.01266,-10.56362 z m 35.970661,3.29211 -4.622192,3.44407 c 1.242429,1.27572 2.385394,2.67891 3.429041,4.20977 1.043648,1.47984 2.062642,3.13845 3.056585,4.97548 l 4.920036,-3.59764 c -0.99394,-1.73497 -2.06276,-3.3421 -3.2058,-4.82191 -1.09335,-1.47982 -2.285555,-2.88304 -3.57767,-4.20977 z m -20.127827,3.36781 c -0.695756,2.65347 -1.565308,5.2807 -2.608944,7.88313 -1.043646,2.60243 -2.286268,5.17975 -3.727484,7.73116 l 5.590937,3.29157 c 1.490905,-2.70449 2.783358,-5.48626 3.876691,-8.34385 1.143038,-2.90859 2.087312,-5.79124 2.83277,-8.64881 z m 41.000557,0 -5.96398,2.52533 c 2.18668,5.15386 3.92634,10.69106 5.21848,16.61034 l 6.03798,-2.45015 c -1.39151,-6.02133 -3.1555,-11.58268 -5.29248,-16.68552 z m -33.47157,2.37284 c -0.596362,5.91927 0.09936,10.46055 2.087267,13.6243 1.192742,1.93906 2.733715,3.34229 4.622209,4.20977 1.938191,0.91851 4.125085,1.37784 6.560246,1.37784 4.174558,0 7.479528,-1.17356 9.914688,-3.52084 2.48486,-2.3473 4.17413,-5.46016 5.06867,-9.33829 l -6.18721,-1.6839 c -0.49697,2.75552 -1.51598,4.82252 -3.05658,6.20027 -1.49092,1.32675 -3.37948,1.98944 -5.665556,1.98944 -1.5406,0 -2.857386,-0.33109 -3.950701,-0.99445 -1.093343,-0.7144 -1.913066,-1.81229 -2.459741,-3.29211 -0.397563,-1.07159 -0.67101,-2.29558 -0.820096,-3.67335 -0.09936,-1.42879 -0.04956,-3.06167 0.149213,-4.89868 z" />
  </g>
</svg>
